<svg xmlns="http://www.w3.org/2000/svg" data-name="Layer 1" viewBox="0 0 100 125" x="0px" y="0px"><path d="M50,81.183c-20.731,0-39.153-12.089-46.933-30.8a1.011,1.011,0,0,1,0-.768c7.78-18.71,26.2-30.8,46.933-30.8s39.153,12.089,46.933,30.8a1.011,1.011,0,0,1,0,.768C89.153,69.094,70.731,81.183,50,81.183ZM5.076,50A48.455,48.455,0,0,0,50,79.183,48.455,48.455,0,0,0,94.924,50,48.455,48.455,0,0,0,50,20.817,48.455,48.455,0,0,0,5.076,50Z"/><path d="M50,81.183c-20.731,0-39.153-12.089-46.933-30.8a1.011,1.011,0,0,1,0-.768c7.78-18.71,26.2-30.8,46.933-30.8s39.153,12.089,46.933,30.8a1.011,1.011,0,0,1,0,.768C89.153,69.094,70.731,81.183,50,81.183ZM5.076,50A48.455,48.455,0,0,0,50,79.183,48.455,48.455,0,0,0,94.924,50,48.455,48.455,0,0,0,50,20.817,48.455,48.455,0,0,0,5.076,50Z"/><path d="M50,73.2A23.132,23.132,0,0,1,33.59,66.41h0A23.232,23.232,0,1,1,50,73.2ZM50,28.8A21.2,21.2,0,0,0,35,65h0A21.208,21.208,0,1,0,50,28.8Z"/><path d="M50,59.171a9.109,9.109,0,0,1-6.484-2.686h0A9.169,9.169,0,1,1,50,59.171Zm0-16.342a7.171,7.171,0,0,0-5.07,12.242h0A7.171,7.171,0,1,0,50,42.829Z"/><path d="M3,98a1,1,0,0,1-.707-1.707l94-94a1,1,0,0,1,1.414,1.414l-94,94A1,1,0,0,1,3,98Z"/><text x="0" y="115" fill="#000000" font-size="5px" font-weight="bold" font-family="'Helvetica Neue', Helvetica, Arial-Unicode, Arial, Sans-serif">Created by IconMonk</text><text x="0" y="120" fill="#000000" font-size="5px" font-weight="bold" font-family="'Helvetica Neue', Helvetica, Arial-Unicode, Arial, Sans-serif">from the Noun Project</text></svg>